# xmcd CD database file
#
# Track frame offsets:
#	150
#	11702
#	19017
#	23870
#	38282
#	52175
#	59027
#	72557
#	82517
#	92102
#	97055
#	103992
#	115554
#	119802
#	132807
#	139417
#	153322
#	162330
#	170715
#	182040
#	187090
#	192942
#	206187
#	214690
#	226355
#	231237
#	238265
#
# Disc length: 3304 seconds
#
# Revision: 1
# Processed by: cddbd v1.5.1PL0 Copyright (c) Steve Scherf et al.
# Submitted via: CDex 1.51
#
DISCID=8e0ce61b
DTITLE=Hinario Liturgico - Liturgia VI Tempo Comum Ano A 2 a 19
DYEAR=2002
DGENRE=Religioso
TTITLE0=Toda a terra te adore-Entr 2 a 5
TTITLE1=Salmo 2 e 3 domingo
TTITLE2=Aclama 2 a 6 domingo
TTITLE3=De maos estendidas Ofert 2 a 5 
TTITLE4=Cantico de Zacarias Comunh 2 e 3 dom
TTITLE5=Salmo 4 a 7 dom
TTITLE6=Felizes os Pobres Comunh 4 a 10 dom
TTITLE7=Se a rocha q me abriga Ent 6 a 9
TTITLE8=A vos senhor apresentamos Ofer 6 a 9
TTITLE9=Aclama 7 a 9 domingo
TTITLE10=Salmo 8 a 10 dom
TTITLE11=O senhor e minha luz Entra 10 a 13 dom
TTITLE12=Aclama 10 a 13 domingo
TTITLE13=Bendito seja deus Ofert 10 a 15
TTITLE14=Salmo 11 Nos somos o povo
TTITLE15=Vem senhor vem curar Comunh 11 a 14
TTITLE16=Salmo 12 Atendei-me o senhor
TTITLE17=Salmo 13 e 14 dom
TTITLE18=No meio da tua casa Entra 14 a 16
TTITLE19=Aclama 14 a 17 domingo
TTITLE20=Salmo 15 a 18 dom
TTITLE21=Terra boa e aquele q ouviu Comunh 15 a 18
TTITLE22=A mesa santa Ofert 16 a 19
TTITLE23=Acolhe o oprimido Entra 17 a 19
TTITLE24=Aclama 18 e 19 domingo
TTITLE25=Salmo 19 Mostrai-nos o senhor
TTITLE26=E bom estarmos juntos Comunh 19 dom
EXTD=YEAR: 2002
EXTT0=
EXTT1=
EXTT2=
EXTT3=
EXTT4=
EXTT5=
EXTT6=
EXTT7=
EXTT8=
EXTT9=
EXTT10=
EXTT11=
EXTT12=
EXTT13=
EXTT14=
EXTT15=
EXTT16=
EXTT17=
EXTT18=
EXTT19=
EXTT20=
EXTT21=
EXTT22=
EXTT23=
EXTT24=
EXTT25=
EXTT26=
PLAYORDER=
